# xmcd CD database file
#
# Track frame offsets:
#	150
#	25255
#	42802
#	66415
#	98350
#	120217
#	142865
#	161015
#	189497
#	206915
#	224822
#	246212
#	264955
#	285675
#
# Disc length: 4116 seconds
#
# Revision: 0
# Processed by: cddbd v1.5PL3 Copyright (c) Steve Scherf et al.
# Submitted via: CDex 1.50beta8
#
DISCID=c910120e
DTITLE=Eins:Vier - UNTITLED [CD1]
DYEAR=1900
DGENRE=JPop
TTITLE0=Dear Song
TTITLE1=碧い涙
TTITLE2=Notice
TTITLE3=街の灯
TTITLE4=花の声
TTITLE5=Shine
TTITLE6=「メロディー」
TTITLE7=after
TTITLE8=・・・love me
TTITLE9=ALONE
TTITLE10=風に憧れて
TTITLE11=L.E.S.S.O.N
TTITLE12=In your dream
TTITLE13=I feel that she will come
EXTD=
EXTT0=
EXTT1=
EXTT2=
EXTT3=
EXTT4=
EXTT5=
EXTT6=
EXTT7=
EXTT8=
EXTT9=
EXTT10=
EXTT11=
EXTT12=
EXTT13=
PLAYORDER=
